{
    "asset" : {
        "generator" : "Khronos glTF Blender I/O v1.5.17",
        "version" : "2.0"
    },
    "scene" : 0,
    "scenes" : [
        {
            "name" : "Scene",
            "nodes" : [
                2
            ]
        }
    ],
    "nodes" : [
        {
            "mesh" : 0,
            "name" : "base.001",
            "scale" : [
                7.874015808105469,
                7.874017238616943,
                7.874015808105469
            ],
            "translation" : [
                -64.48094177246094,
                2.774404287338257,
                -0.23027218878269196
            ]
        },
        {
            "mesh" : 1,
            "name" : "Shape001",
            "rotation" : [
                0.36153894662857056,
                -0.6076920628547668,
                -0.6076920628547668,
                0.361538827419281
            ],
            "scale" : [
                7.874016761779785,
                7.874015808105469,
                7.874016761779785
            ],
            "translation" : [
                9.53486442565918,
                78.3649673461914,
                -0.230269193649292
            ]
        },
        {
            "children" : [
                0,
                1
            ],
            "name" : "chest01",
            "scale" : [
                0.02500000037252903,
                0.02539999969303608,
                0.02500000037252903
            ],
            "translation" : [
                2.103733095282223e-05,
                0.1686725616455078,
                1.3339052202354651e-05
            ]
        }
    ],
    "animations" : [
        {
            "channels" : [
                {
                    "sampler" : 0,
                    "target" : {
                        "node" : 0,
                        "path" : "translation"
                    }
                }
            ],
            "name" : "base.001Action",
            "samplers" : [
                {
                    "input" : 16,
                    "interpolation" : "STEP",
                    "output" : 17
                }
            ]
        },
        {
            "channels" : [
                {
                    "sampler" : 0,
                    "target" : {
                        "node" : 1,
                        "path" : "translation"
                    }
                },
                {
                    "sampler" : 1,
                    "target" : {
                        "node" : 1,
                        "path" : "rotation"
                    }
                }
            ],
            "name" : "Close",
            "samplers" : [
                {
                    "input" : 18,
                    "interpolation" : "LINEAR",
                    "output" : 19
                },
                {
                    "input" : 20,
                    "interpolation" : "LINEAR",
                    "output" : 21
                }
            ]
        },
        {
            "channels" : [
                {
                    "sampler" : 0,
                    "target" : {
                        "node" : 1,
                        "path" : "rotation"
                    }
                }
            ],
            "name" : "Closed",
            "samplers" : [
                {
                    "input" : 22,
                    "interpolation" : "LINEAR",
                    "output" : 23
                }
            ]
        },
        {
            "channels" : [
                {
                    "sampler" : 0,
                    "target" : {
                        "node" : 1,
                        "path" : "translation"
                    }
                },
                {
                    "sampler" : 1,
                    "target" : {
                        "node" : 1,
                        "path" : "rotation"
                    }
                }
            ],
            "name" : "Open",
            "samplers" : [
                {
                    "input" : 22,
                    "interpolation" : "LINEAR",
                    "output" : 24
                },
                {
                    "input" : 25,
                    "interpolation" : "LINEAR",
                    "output" : 26
                }
            ]
        },
        {
            "channels" : [
                {
                    "sampler" : 0,
                    "target" : {
                        "node" : 1,
                        "path" : "translation"
                    }
                },
                {
                    "sampler" : 1,
                    "target" : {
                        "node" : 1,
                        "path" : "rotation"
                    }
                }
            ],
            "name" : "opened",
            "samplers" : [
                {
                    "input" : 22,
                    "interpolation" : "LINEAR",
                    "output" : 27
                },
                {
                    "input" : 22,
                    "interpolation" : "LINEAR",
                    "output" : 28
                }
            ]
        }
    ],
    "materials" : [
        {
            "doubleSided" : true,
            "name" : "Material.003",
            "pbrMetallicRoughness" : {
                "baseColorTexture" : {
                    "index" : 0
                },
                "metallicFactor" : 0,
                "roughnessFactor" : 0.5
            }
        },
        {
            "doubleSided" : true,
            "name" : "Material.002",
            "pbrMetallicRoughness" : {
                "baseColorTexture" : {
                    "index" : 1
                },
                "roughnessFactor" : 0.23181816935539246
            }
        }
    ],
    "meshes" : [
        {
            "name" : "Mesh",
            "primitives" : [
                {
                    "attributes" : {
                        "POSITION" : 0,
                        "NORMAL" : 1,
                        "TEXCOORD_0" : 2
                    },
                    "indices" : 3,
                    "material" : 0
                },
                {
                    "attributes" : {
                        "POSITION" : 4,
                        "NORMAL" : 5,
                        "TEXCOORD_0" : 6
                    },
                    "indices" : 7,
                    "material" : 1
                }
            ]
        },
        {
            "name" : "Mesh.094",
            "primitives" : [
                {
                    "attributes" : {
                        "POSITION" : 8,
                        "NORMAL" : 9,
                        "TEXCOORD_0" : 10
                    },
                    "indices" : 11,
                    "material" : 1
                },
                {
                    "attributes" : {
                        "POSITION" : 12,
                        "NORMAL" : 13,
                        "TEXCOORD_0" : 14
                    },
                    "indices" : 15,
                    "material" : 0
                }
            ]
        }
    ],
    "textures" : [
        {
            "sampler" : 0,
            "source" : 0
        },
        {
            "sampler" : 0,
            "source" : 1
        }
    ],
    "images" : [
        {
            "mimeType" : "image/jpeg",
            "name" : "wood03",
            "uri" : "wood03.jpg"
        },
        {
            "mimeType" : "image/jpeg",
            "name" : "metal_stains",
            "uri" : "metal_stains.jpg"
        }
    ],
    "accessors" : [
        {
            "bufferView" : 0,
            "componentType" : 5126,
            "count" : 216,
            "max" : [
                9.387261390686035,
                9.633373260498047,
                14.222020149230957
            ],
            "min" : [
                -9.387261390686035,
                0,
                -14.222020149230957
            ],
            "type" : "VEC3"
        },
        {
            "bufferView" : 1,
            "componentType" : 5126,
            "count" : 216,
            "type" : "VEC3"
        },
        {
            "bufferView" : 2,
            "componentType" : 5126,
            "count" : 216,
            "type" : "VEC2"
        },
        {
            "bufferView" : 3,
            "componentType" : 5123,
            "count" : 324,
            "type" : "SCALAR"
        },
        {
            "bufferView" : 4,
            "componentType" : 5126,
            "count" : 11678,
            "max" : [
                9.5650634765625,
                9.948790550231934,
                14.387362480163574
            ],
            "min" : [
                -10.678973197937012,
                -0.07874006032943726,
                -14.403929710388184
            ],
            "type" : "VEC3"
        },
        {
            "bufferView" : 5,
            "componentType" : 5126,
            "count" : 11678,
            "type" : "VEC3"
        },
        {
            "bufferView" : 6,
            "componentType" : 5126,
            "count" : 11678,
            "type" : "VEC2"
        },
        {
            "bufferView" : 7,
            "componentType" : 5123,
            "count" : 40716,
            "type" : "SCALAR"
        },
        {
            "bufferView" : 8,
            "componentType" : 5126,
            "count" : 8876,
            "max" : [
                0.166107177734375,
                14.428693771362305,
                0.15948009490966797
            ],
            "min" : [
                -20.07968521118164,
                -14.422183990478516,
                -3.5911636352539062
            ],
            "type" : "VEC3"
        },
        {
            "bufferView" : 9,
            "componentType" : 5126,
            "count" : 8876,
            "type" : "VEC3"
        },
        {
            "bufferView" : 10,
            "componentType" : 5126,
            "count" : 8876,
            "type" : "VEC2"
        },
        {
            "bufferView" : 11,
            "componentType" : 5123,
            "count" : 31428,
            "type" : "SCALAR"
        },
        {
            "bufferView" : 12,
            "componentType" : 5126,
            "count" : 588,
            "max" : [
                0.011961936950683594,
                14.225521087646484,
                0.07874011993408203
            ],
            "min" : [
                -18.81173324584961,
                -14.225519180297852,
                -3.3701772689819336
            ],
            "type" : "VEC3"
        },
        {
            "bufferView" : 13,
            "componentType" : 5126,
            "count" : 588,
            "type" : "VEC3"
        },
        {
            "bufferView" : 14,
            "componentType" : 5126,
            "count" : 588,
            "type" : "VEC2"
        },
        {
            "bufferView" : 15,
            "componentType" : 5123,
            "count" : 900,
            "type" : "SCALAR"
        },
        {
            "bufferView" : 16,
            "componentType" : 5126,
            "count" : 1,
            "max" : [
                0
            ],
            "min" : [
                0
            ],
            "type" : "SCALAR"
        },
        {
            "bufferView" : 17,
            "componentType" : 5126,
            "count" : 1,
            "type" : "VEC3"
        },
        {
            "bufferView" : 18,
            "componentType" : 5126,
            "count" : 140,
            "max" : [
                4.666666666666667
            ],
            "min" : [
                0.03333333333333333
            ],
            "type" : "SCALAR"
        },
        {
            "bufferView" : 19,
            "componentType" : 5126,
            "count" : 140,
            "type" : "VEC3"
        },
        {
            "bufferView" : 20,
            "componentType" : 5126,
            "count" : 101,
            "max" : [
                4.666666666666667
            ],
            "min" : [
                1.3333333333333333
            ],
            "type" : "SCALAR"
        },
        {
            "bufferView" : 21,
            "componentType" : 5126,
            "count" : 101,
            "type" : "VEC4"
        },
        {
            "bufferView" : 22,
            "componentType" : 5126,
            "count" : 251,
            "max" : [
                8.333333333333334
            ],
            "min" : [
                0
            ],
            "type" : "SCALAR"
        },
        {
            "bufferView" : 23,
            "componentType" : 5126,
            "count" : 251,
            "type" : "VEC4"
        },
        {
            "bufferView" : 24,
            "componentType" : 5126,
            "count" : 251,
            "type" : "VEC3"
        },
        {
            "bufferView" : 25,
            "componentType" : 5126,
            "count" : 81,
            "max" : [
                2.6666666666666665
            ],
            "min" : [
                0
            ],
            "type" : "SCALAR"
        },
        {
            "bufferView" : 26,
            "componentType" : 5126,
            "count" : 81,
            "type" : "VEC4"
        },
        {
            "bufferView" : 27,
            "componentType" : 5126,
            "count" : 251,
            "type" : "VEC3"
        },
        {
            "bufferView" : 28,
            "componentType" : 5126,
            "count" : 251,
            "type" : "VEC4"
        }
    ],
    "bufferViews" : [
        {
            "buffer" : 0,
            "byteLength" : 2592,
            "byteOffset" : 0
        },
        {
            "buffer" : 0,
            "byteLength" : 2592,
            "byteOffset" : 2592
        },
        {
            "buffer" : 0,
            "byteLength" : 1728,
            "byteOffset" : 5184
        },
        {
            "buffer" : 0,
            "byteLength" : 648,
            "byteOffset" : 6912
        },
        {
            "buffer" : 0,
            "byteLength" : 140136,
            "byteOffset" : 7560
        },
        {
            "buffer" : 0,
            "byteLength" : 140136,
            "byteOffset" : 147696
        },
        {
            "buffer" : 0,
            "byteLength" : 93424,
            "byteOffset" : 287832
        },
        {
            "buffer" : 0,
            "byteLength" : 81432,
            "byteOffset" : 381256
        },
        {
            "buffer" : 0,
            "byteLength" : 106512,
            "byteOffset" : 462688
        },
        {
            "buffer" : 0,
            "byteLength" : 106512,
            "byteOffset" : 569200
        },
        {
            "buffer" : 0,
            "byteLength" : 71008,
            "byteOffset" : 675712
        },
        {
            "buffer" : 0,
            "byteLength" : 62856,
            "byteOffset" : 746720
        },
        {
            "buffer" : 0,
            "byteLength" : 7056,
            "byteOffset" : 809576
        },
        {
            "buffer" : 0,
            "byteLength" : 7056,
            "byteOffset" : 816632
        },
        {
            "buffer" : 0,
            "byteLength" : 4704,
            "byteOffset" : 823688
        },
        {
            "buffer" : 0,
            "byteLength" : 1800,
            "byteOffset" : 828392
        },
        {
            "buffer" : 0,
            "byteLength" : 4,
            "byteOffset" : 830192
        },
        {
            "buffer" : 0,
            "byteLength" : 12,
            "byteOffset" : 830196
        },
        {
            "buffer" : 0,
            "byteLength" : 560,
            "byteOffset" : 830208
        },
        {
            "buffer" : 0,
            "byteLength" : 1680,
            "byteOffset" : 830768
        },
        {
            "buffer" : 0,
            "byteLength" : 404,
            "byteOffset" : 832448
        },
        {
            "buffer" : 0,
            "byteLength" : 1616,
            "byteOffset" : 832852
        },
        {
            "buffer" : 0,
            "byteLength" : 1004,
            "byteOffset" : 834468
        },
        {
            "buffer" : 0,
            "byteLength" : 4016,
            "byteOffset" : 835472
        },
        {
            "buffer" : 0,
            "byteLength" : 3012,
            "byteOffset" : 839488
        },
        {
            "buffer" : 0,
            "byteLength" : 324,
            "byteOffset" : 842500
        },
        {
            "buffer" : 0,
            "byteLength" : 1296,
            "byteOffset" : 842824
        },
        {
            "buffer" : 0,
            "byteLength" : 3012,
            "byteOffset" : 844120
        },
        {
            "buffer" : 0,
            "byteLength" : 4016,
            "byteOffset" : 847132
        }
    ],
    "samplers" : [
        {
            "magFilter" : 9729,
            "minFilter" : 9987
        }
    ],
    "buffers" : [
        {
            "byteLength" : 851148,
            "uri" : "Chest.bin"
        }
    ]
}
